<?xml version="1.0" encoding="UTF-8"?>
<svg xmlns="http://www.w3.org/2000/svg" id="Layer_1" data-name="Layer 1" viewBox="0 0 512 512" width="512" height="512"><path d="M291.191,147H289a6,6,0,0,0,0,12h2.192a6,6,0,0,0,0-12Z"/><path d="M324.962,147H313.069a6,6,0,0,0,0,12h11.893a6,6,0,0,0,0-12Z"/><path d="M384.646,147H347.194a6,6,0,0,0,0,12h37.452a6,6,0,0,0,0-12Z"/><path d="M291.191,175H289a6,6,0,0,0,0,12h2.192a6,6,0,0,0,0-12Z"/><path d="M324.962,175H313.069a6,6,0,0,0,0,12h11.893a6,6,0,0,0,0-12Z"/><path d="M384.646,175H347.194a6,6,0,1,0,0,12h37.452a6,6,0,0,0,0-12Z"/><path d="M291.191,203H289a6,6,0,0,0,0,12h2.192a6,6,0,0,0,0-12Z"/><path d="M324.962,203H313.069a6,6,0,1,0,0,12h11.893a6,6,0,0,0,0-12Z"/><path d="M384.646,203H347.194a6,6,0,1,0,0,12h37.452a6,6,0,0,0,0-12Z"/><path d="M220.809,232H223a6,6,0,0,0,0-12h-2.192a6,6,0,1,0,0,12Z"/><path d="M187.038,232h11.893a6,6,0,1,0,0-12H187.038a6,6,0,0,0,0,12Z"/><path d="M127.354,232h37.452a6,6,0,1,0,0-12H127.354a6,6,0,1,0,0,12Z"/><path d="M220.809,260H223a6,6,0,0,0,0-12h-2.192a6,6,0,1,0,0,12Z"/><path d="M187.038,260h11.893a6,6,0,1,0,0-12H187.038a6,6,0,0,0,0,12Z"/><path d="M127.354,260h37.452a6,6,0,1,0,0-12H127.354a6,6,0,1,0,0,12Z"/><path d="M220.809,288H223a6,6,0,0,0,0-12h-2.192a6,6,0,1,0,0,12Z"/><path d="M187.038,288h11.893a6,6,0,1,0,0-12H187.038a6,6,0,0,0,0,12Z"/><path d="M170.806,282a6,6,0,0,0-6-6H127.354a6,6,0,1,0,0,12h37.452A6,6,0,0,0,170.806,282Z"/><path d="M233.493,451h46.05a6,6,0,0,0,0-12h-46.05a6,6,0,1,0,0,12Z"/><path d="M154,89.2a6,6,0,0,0-6,6v4.563a6,6,0,1,0,12,0V95.2A6,6,0,0,0,154,89.2Z"/><path d="M154,110.738a6,6,0,0,0-6,6v44.174a6,6,0,1,0,12,0V116.738A6,6,0,0,0,154,110.738Z"/><path d="M475.808,101H387V66.736A55.826,55.826,0,0,0,331.193,11H181.843A55.857,55.857,0,0,0,126,66.736V174H36.194A31.1,31.1,0,0,0,5,205.039V304.3A30.8,30.8,0,0,0,36.16,335H126V445.264A55.857,55.857,0,0,0,181.843,501h149.35A55.826,55.826,0,0,0,387,445.264V262h88.833A30.837,30.837,0,0,0,507,231.2V131.989A31.062,31.062,0,0,0,475.808,101ZM138,66.736A43.843,43.843,0,0,1,181.843,23h149.35A43.812,43.812,0,0,1,375,66.736V73H138ZM111,323H50V307.907A17.853,17.853,0,0,1,67.766,290H93.057A18,18,0,0,1,111,307.907ZM61.947,245a18.312,18.312,0,0,0,18.231-18H101v19.383a20.5,20.5,0,1,1-41,0V245ZM60,233v-4.361A20.506,20.506,0,0,1,80.474,208.1c.491,0,2.411.1,6.88,1.462a29.19,29.19,0,0,0,8.445,1.378c3.231,0,6.092,1.057,7.909,4.057H79.783a11.684,11.684,0,0,0-11.6,11.683A6.313,6.313,0,0,1,61.947,233Zm76.011,90H123V307.907A30.018,30.018,0,0,0,93.057,278h-5.27c14.4-3,25.213-16.214,25.213-31.617V226.65a5.724,5.724,0,0,0,4.753-5.876A21.98,21.98,0,0,0,95.8,198.83a17.191,17.191,0,0,1-4.983-.748A37.907,37.907,0,0,0,80.477,196.1,32.522,32.522,0,0,0,48,228.639v17.744C48,261.786,58.638,275,73.035,278H67.766A29.866,29.866,0,0,0,38,307.907V323H36.175a18.843,18.843,0,0,1-13.546-5.382A18.564,18.564,0,0,1,17,304.249V205.041A19.089,19.089,0,0,1,36.2,186H219.928A18.984,18.984,0,0,1,239,205.039v99.208A18.743,18.743,0,0,1,219.928,323H208.19c-11.968,0-21.285,4.374-27.691,12.57-10.768,13.774-10.031,35.894-8.28,49.288-10.976-6.339-27.435-20.852-26.181-50.855a9.951,9.951,0,0,0-2.521-7.2,10.239,10.239,0,0,0-6.918-3.58C136.417,323.213,136.234,323,136.011,323ZM375,445.264A43.812,43.812,0,0,1,331.193,489H181.843A43.843,43.843,0,0,1,138,445.264V417H375ZM375,405H138V361.58a61.609,61.609,0,0,0,17.312,25.773,65.128,65.128,0,0,0,23.229,13.329,6.118,6.118,0,0,0,1.564.262,5.956,5.956,0,0,0,5.823-7.408c-2.373-9.541-6.278-37.4,4.025-50.583C194.025,337.744,199.99,335,208.19,335h11.738A30.754,30.754,0,0,0,251,304.249V205.037A31,31,0,0,0,219.928,174H138V85H375v16H292.072A30.957,30.957,0,0,0,261,131.989V231.2A30.8,30.8,0,0,0,292.072,262H303.81c8.193,0,14.155,2.722,18.227,7.923,10.28,13.13,6.4,40.923,4.035,50.481a6.09,6.09,0,0,0,1.622,5.782,6.041,6.041,0,0,0,5.765,1.545,66.1,66.1,0,0,0,23.229-13.408A61.786,61.786,0,0,0,375,285.5Zm87-155H401V234.858A17.963,17.963,0,0,1,418.943,217h25.291A17.811,17.811,0,0,1,462,234.858Zm-48.875-78a18.31,18.31,0,0,0,18.23-18H452v19.334a20.5,20.5,0,1,1-41,0V172ZM411,160v-4.41a20.582,20.582,0,0,1,20.562-20.536,26.737,26.737,0,0,1,6.924,1.462,29.337,29.337,0,0,0,8.468,1.4c3.232,0,6.114,1.081,7.933,4.081H430.961a11.684,11.684,0,0,0-11.6,11.683A6.312,6.312,0,0,1,413.125,160Zm84,71.241a18.6,18.6,0,0,1-5.629,13.353A18.862,18.862,0,0,1,475.826,250H474V234.858A29.825,29.825,0,0,0,444.234,205h-5.267c14.4-3,25.033-16.264,25.033-31.666V153.6a5.8,5.8,0,0,0,4.843-5.876,21.942,21.942,0,0,0-21.913-21.944,17.017,17.017,0,0,1-4.961-.749,38.376,38.376,0,0,0-10.414-1.979A32.588,32.588,0,0,0,399,155.59v17.744c0,15.4,10.814,28.666,25.211,31.666h-5.268A29.977,29.977,0,0,0,389,234.858V250H375.9c-.167,0-.335.2-.484.212a10.253,10.253,0,0,0-9.458,10.748c1.266,30.275-15.2,44.774-26.192,51.026,1.758-13.384,2.523-35.648-8.269-49.453C325.1,254.337,315.778,250,303.81,250H292.072A18.783,18.783,0,0,1,273,231.2V131.993A18.944,18.944,0,0,1,292.072,113H475.806A19.049,19.049,0,0,1,495,131.991Z"/></svg>
