<?xml version="1.0"?>
<svg xmlns="http://www.w3.org/2000/svg" id="Layer_1" data-name="Layer 1" viewBox="0 0 512 512" width="512" height="512"><title>a1</title><path d="M140.545,95H190.7a6.273,6.273,0,0,0,4.242-10.608L174.7,64.083a131.032,131.032,0,0,1,189.471,27.06,6,6,0,0,0,9.83-6.9,143.057,143.057,0,0,0-207.83-28.754L144.787,34.112a5.637,5.637,0,0,0-6.31-1.3A5.8,5.8,0,0,0,135,38.354V88.513C135,91.826,137.231,95,140.545,95ZM147,52.839,161.537,67.6c.01.012-.095.024-.085.036.164.184.282.6.462.756l14.3,14.6H147Z"/><path d="M369,417H318.842a6.273,6.273,0,0,0-4.242,10.608l20.247,20.309a131.031,131.031,0,0,1-189.47-27.06,6,6,0,0,0-9.83,6.895,143.055,143.055,0,0,0,207.829,28.754l21.382,21.382A6,6,0,0,0,375,473.646V423.487C375,420.174,372.313,417,369,417Zm-6,42.161-14.77-14.77c-.008-.01-.015-.021-.024-.031-.162-.183-.335-.593-.514-.751L333.327,429H363Z"/><path d="M211,392.286v-31.01c0-.167-.228-.333-.241-.5a39.787,39.787,0,0,0-21.773-32,7.038,7.038,0,0,0-.7-.277L156.3,316.973a35.189,35.189,0,0,0,21.5-22.647,35.531,35.531,0,0,0,8.8-.676,35.252,35.252,0,0,0,28.153-34.538c0-10.647-6.345-20.5-13.9-27.106a21.809,21.809,0,0,0,3.6-12,22.056,22.056,0,0,0-.629-5.235,18.1,18.1,0,0,0-14.118-13.4l1.2-17.385A72.317,72.317,0,0,0,65.89,129.661a71.6,71.6,0,0,0-19.28,54.321l1.2,17.45A18.019,18.019,0,0,0,33.646,214.77a22.056,22.056,0,0,0-.628,5.235,21.8,21.8,0,0,0,3.2,11.379,35.273,35.273,0,0,0,5.475,59,35.114,35.114,0,0,0,9.233,3.287,35.725,35.725,0,0,0,8.813.675,35.207,35.207,0,0,0,21.612,22.7L49.6,328.5a6.051,6.051,0,0,0-.647.277,39.821,39.821,0,0,0-21.8,32c-.013.166-.154.332-.154.5v31.01C27,395.6,29.954,398,33.268,398H204.559C207.872,398,211,395.6,211,392.286Zm-46-31.01V386H72V361.276c0-.166.2-.333.189-.5a39.491,39.491,0,0,0-10.646-23.865l34.215-12.28L113,347.619v19.942a6,6,0,0,0,12,0V347.619l17-23.088,34.247,12.382a39.906,39.906,0,0,0-10.989,23.864C165.243,360.943,165,361.109,165,361.276Zm-45.978-58.7A71.225,71.225,0,0,0,134,300.948v14.544l-15,20.075-15-20.075V300.938A71.145,71.145,0,0,0,119.022,302.579Zm71.235-22.846a23.047,23.047,0,0,1-6.068,2.161,23.6,23.6,0,0,1-9.764-.081,6,6,0,0,0-7.251,5.089,23.279,23.279,0,0,1-15.238,18.891,20.566,20.566,0,0,1-2.946.874,22.073,22.073,0,0,1-2.99.4v-9.953A77.148,77.148,0,0,0,166.759,283.2a68.164,68.164,0,0,0,20.364-41.71,21.4,21.4,0,0,0,4.556-1.544c5.888,4.655,11.094,12.064,11.094,19.165A23.23,23.23,0,0,1,190.257,279.733ZM74.662,137.849a60.318,60.318,0,0,1,104.269,45.307l-1.205,17.472c-11.179-1.665-19.529-6.073-24.851-13.165-11.128-14.83-6.236-37.1-6.188-37.313a6,6,0,0,0-10.484-5.16L119.369,165.5l-.063.078A47.6,47.6,0,0,1,81.813,183.7a36.448,36.448,0,0,0-22.648,7.93l-.584-8.469A59.724,59.724,0,0,1,74.662,137.849ZM45.3,217.624a6,6,0,0,1,6.054-4.526,6.91,6.91,0,0,1,1.256-.043A6,6,0,0,0,53.729,213H54.2c.009,0,.019.161.027.161s.042.076.063.076a6.1,6.1,0,0,0,.69-.01c.077-.009.152,0,.228-.015.19-.032.378-.062.562-.111.063-.017.125-.026.186-.044a5.847,5.847,0,0,0,.707-.257c.036-.016.071-.035.107-.052a5.989,5.989,0,0,0,.564-.3c.063-.038.126-.078.188-.119a6.009,6.009,0,0,0,.5-.363c.04-.033.082-.061.122-.095a6.04,6.04,0,0,0,.478-.456c.022-.024.04-.05.062-.073.043-.048.083-.1.125-.15a6.21,6.21,0,0,0,.377-.5c.035-.052.072-.1.1-.156a6.032,6.032,0,0,0,.388-.7l.01-.017A24.363,24.363,0,0,1,81.813,195.7a59.529,59.529,0,0,0,46.863-22.62l5.053-6.156c.6,8.7,2.966,18.936,9.494,27.674,8.432,11.288,21.79,17.556,39.7,18.631.064,0,.127-.117.191-.115s.112-.109.168-.109h.455a6.026,6.026,0,0,0,1.115.013,6.221,6.221,0,0,1,7.311,4.552,10.425,10.425,0,0,1,.285,2.429A10.01,10.01,0,0,1,182.492,230h-1.08a5.984,5.984,0,0,0-6,5.786,56.691,56.691,0,0,1-113.318,0,5.985,5.985,0,0,0-6-5.788H54.975a9.984,9.984,0,0,1-9.957-9.976A10.129,10.129,0,0,1,45.3,217.624Zm25.059,69.294a6,6,0,0,0-7.251-5.088,23.68,23.68,0,0,1-9.776.08,23.284,23.284,0,0,1-8.122-42.241,21.78,21.78,0,0,0,5.269,1.831,68.4,68.4,0,0,0,20.537,41.7A65.19,65.19,0,0,0,92,297.1V307.1a25.385,25.385,0,0,1-3.165-.395,23.731,23.731,0,0,1-3.174-.875,23.267,23.267,0,0,1-15.3-18.916ZM39,361.539a28.678,28.678,0,0,1,10.5-19.2c5.955,4.615,10.5,11.593,10.5,19.2V386H39ZM199,386H177V361.538a29.288,29.288,0,0,1,11-19.2,29.277,29.277,0,0,1,11,19.2Z"/><path d="M468.777,315.039c-.21-.1-.565-.2-.786-.277L445,306.516v-7.689a5.873,5.873,0,0,0-3.029-5.29,4.868,4.868,0,0,0-.481-.248l.039-.01-11.64-4.8a64.745,64.745,0,0,0,37.6-54.365A20.955,20.955,0,0,0,479.34,210a17.045,17.045,0,0,0-9.508-11.547l1.054-15.288a67.945,67.945,0,1,0-135.568,0l1.053,15.269A17.03,17.03,0,0,0,326.822,210a20.945,20.945,0,0,0,11.87,24.122,64.675,64.675,0,0,0,37.675,54.387l-11.431,4.708.024.06c-.192.079-.5.158-.681.257a6.1,6.1,0,0,0-3.279,5.29v7.689l-22.741,8.246a5.22,5.22,0,0,0-.592.277,37.559,37.559,0,0,0-20.549,30.208c-.014.166-.118.332-.118.5v43.978A6.46,6.46,0,0,0,323.25,396h58.969l16.728,22.166a6.136,6.136,0,0,0,9.6.035L425.275,396H483.25c3.313,0,5.75-2.963,5.75-6.276V345.746c0-.167.118-.333.1-.5A37.318,37.318,0,0,0,468.777,315.039ZM443,345.746V384H426.624l-8.078-43.669a5.9,5.9,0,0,0,2.715.595,6.027,6.027,0,0,0,4.8-2.435L441.48,317.92l11.988,4.317a37.309,37.309,0,0,0-10.528,23.014C442.926,345.417,443,345.579,443,345.746ZM364,384V345.746c0-.167-.1-.333-.11-.5A37.485,37.485,0,0,0,353.2,322.185l11.846-4.283,15.405,20.555a5.988,5.988,0,0,0,8.119,1.392l.523-.212L380.871,384Zm50.066-61.153,17.412-11.607L419.87,326.716ZM417,306.477l-13.526,9.159L390,306.511V292.87a60.028,60.028,0,0,0,13.327,1.445A59.373,59.373,0,0,0,417,292.792Zm-24.566,16.37-5.8,3.869L375.022,311.24ZM362.205,140.318a55.946,55.946,0,0,1,96.711,42.024l-.66,9.565L453.4,171.884a5.992,5.992,0,0,0-.31-.935,30.5,30.5,0,0,0-26.58-18.431l-5.719-.253a6.015,6.015,0,0,0-5.154,2.517,50.663,50.663,0,0,1-46.652,20.989l-9.614-1.034a8.4,8.4,0,0,0-9.273,7.685l-1.481,18.506-.045-.017-1.281-18.569A55.4,55.4,0,0,1,362.205,140.318Zm-11.659,89.351a6,6,0,0,0-4.965-5.91,8.921,8.921,0,0,1-7.1-10.9,5.044,5.044,0,0,1,1.9-2.923,10.711,10.711,0,0,0,2.13,1.456c.166.085.336.163.509.232,8.751,3.507,11.384,3.927,14.1,2.248a6.139,6.139,0,0,0,2.876-4.71l1.768-22.1,5.937.639a62.7,62.7,0,0,0,55.717-23.31l2.562.113a18.44,18.44,0,0,1,15.882,10.722l9.028,37.213a6,6,0,0,0,9.924,2.972l4.931-4.6c.168-.157.321-.326.479-.491a5.073,5.073,0,0,1,1.463,2.538,9,9,0,0,1,.254,2.13,8.884,8.884,0,0,1-7.334,8.768,6.1,6.1,0,0,0-4.954,6,52.553,52.553,0,1,1-105.106-.089ZM329,346.009a26.547,26.547,0,0,1,11.5-18.752A26.552,26.552,0,0,1,352,346.009V384H329Zm74.747,58.419-11.635-15.513,10.908-58.7.23-.153,1.382.921,10.75,57.936ZM477,384H455V346.009c1-7.6,4.7-14.515,11-18.7,6.3,4.186,11,11.1,11,18.7Z"/></svg>
