<?xml version="1.0" encoding="UTF-8"?>
<svg xmlns="http://www.w3.org/2000/svg" id="Outline" viewBox="0 0 512 512" width="512" height="512"><path d="M488,128H412.92l18.857-78.123a8,8,0,0,0-11.808-8.787L331.982,92.415,303.428,21.029a8,8,0,0,0-13.407-2.343L232,83.958,173.979,18.686a8,8,0,0,0-13.7,3.21L138.7,101.025,35.151,56.646A8,8,0,0,0,24.855,67.6l33.8,67.088A92.256,92.256,0,0,0,24,128a8,8,0,0,0-8,8V416a8,8,0,0,0,8,8H72a72,72,0,0,0,144,0h40v48a24.027,24.027,0,0,0,24,24h32a24.027,24.027,0,0,0,24-24v-8H488a8,8,0,0,0,8-8V136A8,8,0,0,0,488,128ZM49.017,80l91.832,39.357a8,8,0,0,0,10.869-5.25l20.115-73.751,54.188,60.961a8,8,0,0,0,11.958,0l55.4-62.325,27.193,67.982a8,8,0,0,0,11.459,3.939L411.82,64.367,396.46,128H376c-17.471,0-33.67,14.62-39.353,28.84l-10.836,23.311-50.62,25.309-28.245-49.429a8,8,0,0,0-13.892,0l-28.46,49.806-49.443-21.191a8,8,0,0,0-10.826,9.612L165.4,265.911q-4.211-.753-8.591-1.36l-62-100.743c-.031-.052-.063-.1-.1-.154a70.109,70.109,0,0,0-9.591-11.746l.095-.048ZM304,320H272.781a121.845,121.845,0,0,1,3.815-16H304a80.115,80.115,0,0,1,79.6,72H367.482A64.081,64.081,0,0,0,304,320Zm47.321,56H298.667L272,356V336h32A48.07,48.07,0,0,1,351.321,376ZM289.888,216l25.089-12.544L309.146,216Zm9.043,16-8.177,16.008-10.754,0a8,8,0,0,1,0-16ZM128,256v24H112V256a8,8,0,0,1,16,0ZM32,144.4c20.783,2.115,39.183,12.389,49.236,27.869l36.808,59.813a23.963,23.963,0,0,0-16.318,8.381l-22.82-36.511C68.845,185.64,49.073,166.288,32,161.262ZM32,178.4c9.995,4.919,24.061,17.09,32.977,33.436.076.139.155.275.239.409L96,261.5V264H32ZM144,480a56,56,0,1,1,56-56A56.063,56.063,0,0,1,144,480Zm112-72H214.186a71.983,71.983,0,0,0-140.372,0H32V280H96v8a8,8,0,0,0,8,8h32a8,8,0,0,0,8-8v-8h7.523a185.886,185.886,0,0,1,40.516,9.522A64.061,64.061,0,0,0,256,352Zm0-72a48.068,48.068,0,0,1-47.231-39.5,166.833,166.833,0,0,1,22.6,13.051A137.363,137.363,0,0,1,256,330.912Zm2.346-25.491c-13.4-12.285-38.138-30.485-75.087-40.582l-18.788-63.879,40.378,17.306a8,8,0,0,0,10.1-3.385L240,176.125l25.054,43.844a8.211,8.211,0,0,0,.558.836A23.99,23.99,0,0,0,279.593,264C269,274.869,261.8,294.773,258.346,310.509ZM320,472a8.009,8.009,0,0,1-8,8H280a8.009,8.009,0,0,1-8-8V442.264A63.85,63.85,0,0,0,320,464Zm104-24H320a47.945,47.945,0,0,1-37.8-18.447A39.97,39.97,0,0,0,296,432H424Zm56,0H440V424h40Zm0-40H432a8,8,0,0,0-8,8H296a23.973,23.973,0,0,1-24-24V376l19.2,14.4A8,8,0,0,0,296,392H480Zm0-32H399.664a95.553,95.553,0,0,0-2.7-16H480Zm0-32H391.259A96.127,96.127,0,0,0,304,288H282.753c5.908-12.359,11.086-15.923,13.171-16,.015,0,.03,0,.046,0H480Zm0-88H308.2l37.189-80H480Zm0-96H352.836c4.8-8.8,14.923-16,23.164-16H480Z"/><path d="M144,384a40,40,0,1,0,40,40A40.045,40.045,0,0,0,144,384Zm0,64a24,24,0,1,1,24-24A24.028,24.028,0,0,1,144,448Z"/></svg>
