<?xml version="1.0" ?><svg viewBox="0 0 32 32" xmlns="http://www.w3.org/2000/svg"><defs><style>.cls-1{fill:#010101;}</style></defs><title/><g id="VK"><path class="cls-1" d="M25.6,16.41c1.38-1.76,4.5-6,3.8-7.7a1.39,1.39,0,0,0-1.33-.85H24.26a1,1,0,0,0-.84.47,48.4,48.4,0,0,1-3.87,5.41V9.81A1.91,1.91,0,0,0,17.6,7.86H12.84a1,1,0,0,0-.71.29,1.56,1.56,0,0,0-.51,1.55,2.17,2.17,0,0,0,.63.94,1.32,1.32,0,0,1,.54,1.08V15.3c-.67-.59-1.95-2.23-3.78-6.81a1,1,0,0,0-.93-.63H3.32a1,1,0,0,0,0,2H7.41c2,4.85,3.8,7.38,5.5,7.73a1.75,1.75,0,0,0,1.59-.41,1,1,0,0,0,.29-.7V11.72a3.16,3.16,0,0,0-.57-1.86h3.33v5.66a1,1,0,0,0,.29.71,1.3,1.3,0,0,0,1.08.37c1.16-.14,3.15-2.4,5.9-6.74h2.57a28.31,28.31,0,0,1-3.83,5.91,1,1,0,0,0,0,1.41c3,2.95,3.79,4.38,4,5H24.33a7.05,7.05,0,0,1-1.28-1.37,24.64,24.64,0,0,0-1.89-2.15c-.41-.41-1.49-1.5-2.61-1a1.79,1.79,0,0,0-1,1.73V22a6.93,6.93,0,0,1-1.85.16c-4.75,0-8.42-6.58-10.19-10.51a1,1,0,0,0-1.82.82c2,4.37,6.14,11.69,12,11.69,1.15,0,3.85,0,3.85-1.95V19.85l.2.19a24.25,24.25,0,0,1,1.75,2c.95,1.17,1.7,2.1,2.76,2.1h3.81a1.61,1.61,0,0,0,1.48-1C29.94,22.23,29.75,20.68,25.6,16.41Z"/></g></svg>